<svg width="38" height="65" viewBox="0 0 38 65" fill="none" xmlns="http://www.w3.org/2000/svg">
<path d="M7.06055 58H8.37305V54.4609H12.0059V53.3535H8.37305V50.6758H12.3398V49.5449H7.06055V58ZM16.1623 58.123C17.7912 58.123 18.6701 57.1855 18.8811 56.3477L18.8928 56.2949L17.6682 56.3008L17.6447 56.3477C17.4924 56.6758 17.0061 57.0801 16.1916 57.0801C15.1428 57.0801 14.4748 56.3711 14.4514 55.1523H18.9631V54.707C18.9631 52.7969 17.8733 51.5137 16.0979 51.5137C14.3225 51.5137 13.174 52.8438 13.174 54.8301V54.8359C13.174 56.8516 14.299 58.123 16.1623 58.123ZM16.1037 52.5566C16.965 52.5566 17.6037 53.1074 17.7033 54.2441H14.469C14.5803 53.1484 15.2365 52.5566 16.1037 52.5566ZM22.7387 58.123C24.3676 58.123 25.2465 57.1855 25.4574 56.3477L25.4692 56.2949L24.2445 56.3008L24.2211 56.3477C24.0688 56.6758 23.5824 57.0801 22.768 57.0801C21.7192 57.0801 21.0512 56.3711 21.0278 55.1523H25.5395V54.707C25.5395 52.7969 24.4496 51.5137 22.6742 51.5137C20.8988 51.5137 19.7504 52.8438 19.7504 54.8301V54.8359C19.7504 56.8516 20.8754 58.123 22.7387 58.123ZM22.6801 52.5566C23.5414 52.5566 24.1801 53.1074 24.2797 54.2441H21.0453C21.1567 53.1484 21.8129 52.5566 22.6801 52.5566ZM28.9576 58.123C30.4694 58.123 31.5944 57.3203 31.5944 56.1426V56.1309C31.5944 55.2109 31.0084 54.6895 29.7838 54.4023L28.776 54.1738C28.0612 54.0039 27.7682 53.7578 27.7682 53.3594V53.3477C27.7682 52.8379 28.2721 52.4922 28.9694 52.4922C29.6842 52.4922 30.1354 52.8262 30.2584 53.2715V53.2832H31.4713V53.2773C31.36 52.2402 30.4283 51.5137 28.9752 51.5137C27.5338 51.5137 26.5026 52.3105 26.5026 53.418V53.4238C26.5026 54.3555 27.0592 54.9004 28.2604 55.1758L29.274 55.4102C30.0123 55.5801 30.3112 55.8496 30.3112 56.248V56.2598C30.3112 56.7812 29.7662 57.1387 28.9811 57.1387C28.2252 57.1387 27.7623 56.8164 27.6041 56.3359L27.5983 56.3301H26.3268V56.3359C26.4498 57.4023 27.4225 58.123 28.9576 58.123Z" fill="black"/>
<rect width="38" height="38" rx="5" fill="#016DB1"/>
<path d="M18.064 22.645V24.1675C18.064 25.4575 16.864 26.5 15.3865 26.5C13.909 26.5 12.7015 25.4575 12.7015 24.1675V22.645C12.7015 23.935 13.9015 24.85 15.3865 24.85C16.864 24.85 18.064 23.9275 18.064 22.645Z" stroke="white" stroke-width="1.5" stroke-linecap="round" stroke-linejoin="round"/>
<path d="M18.0625 20.5826C18.0625 20.9576 17.9575 21.3026 17.7775 21.6026C17.335 22.3301 16.4275 22.7876 15.3775 22.7876C14.3275 22.7876 13.42 22.3226 12.9775 21.6026C12.7975 21.3026 12.6925 20.9576 12.6925 20.5826C12.6925 19.9376 12.9925 19.3601 13.4725 18.9401C13.96 18.5126 14.6275 18.2576 15.37 18.2576C16.1125 18.2576 16.78 18.5201 17.2675 18.9401C17.7625 19.3526 18.0625 19.9376 18.0625 20.5826Z" stroke="white" stroke-width="1.5" stroke-linecap="round" stroke-linejoin="round"/>
<path d="M18.064 20.5824V22.6449C18.064 23.9349 16.864 24.8499 15.3865 24.8499C13.909 24.8499 12.7015 23.9274 12.7015 22.6449V20.5824C12.7015 19.2924 13.9015 18.2499 15.3865 18.2499C16.129 18.2499 16.7965 18.5124 17.284 18.9324C17.764 19.3524 18.064 19.9374 18.064 20.5824ZM26.5 18.2274V19.7724C26.5 20.1849 26.17 20.5224 25.75 20.5374H24.28C23.47 20.5374 22.7275 19.9449 22.66 19.1349C22.615 18.6624 22.795 18.2199 23.11 17.9124C23.3875 17.6274 23.77 17.4624 24.19 17.4624H25.75C26.17 17.4774 26.5 17.8149 26.5 18.2274Z" stroke="white" stroke-width="1.5" stroke-linecap="round" stroke-linejoin="round"/>
<path d="M11.5 17.875V16.375C11.5 14.335 12.73 12.91 14.6425 12.67C14.8375 12.64 15.04 12.625 15.25 12.625H22C22.195 12.625 22.3825 12.6325 22.5625 12.6625C24.4975 12.8875 25.75 14.32 25.75 16.375V17.4625H24.19C23.77 17.4625 23.3875 17.6275 23.11 17.9125C22.795 18.22 22.615 18.6625 22.66 19.135C22.7275 19.945 23.47 20.5375 24.28 20.5375H25.75V21.625C25.75 23.875 24.25 25.375 22 25.375H20.125" stroke="white" stroke-width="1.5" stroke-linecap="round" stroke-linejoin="round"/>
</svg>
