<svg width="38" height="65" viewBox="0 0 38 65" fill="none" xmlns="http://www.w3.org/2000/svg">
<path d="M2.06055 58H7.42773V56.8691H3.37305V54.2383H7.21094V53.1484H3.37305V50.6758H7.42773V49.5449H2.06055V58ZM8.2795 58H9.66231L11.0568 55.7031H11.1506L12.5451 58H13.9924L11.8654 54.7773L13.969 51.6367H12.5627L11.2033 53.9102H11.1037L9.73263 51.6367H8.26192L10.3947 54.8301L8.2795 58ZM16.6137 58.1055C17.4574 58.1055 18.1254 57.7422 18.5004 57.0977H18.6V58H19.8598V53.6465C19.8598 52.3105 18.9574 51.5137 17.3578 51.5137C15.9106 51.5137 14.9086 52.2109 14.7563 53.2539L14.7504 53.2949H15.975L15.9809 53.2715C16.1332 52.8203 16.5961 52.5625 17.2992 52.5625C18.1606 52.5625 18.6 52.9492 18.6 53.6465V54.209L16.8774 54.3086C15.3598 54.4023 14.5043 55.0645 14.5043 56.2012V56.2129C14.5043 57.3672 15.4008 58.1055 16.6137 58.1055ZM15.7699 56.1602V56.1484C15.7699 55.5742 16.1684 55.2578 17.0473 55.2051L18.6 55.1055V55.6504C18.6 56.4707 17.9028 57.0918 16.9535 57.0918C16.268 57.0918 15.7699 56.7461 15.7699 56.1602ZM21.2448 58H22.5162V54.0918C22.5162 53.2598 23.0846 52.6035 23.8522 52.6035C24.6022 52.6035 25.0768 53.0605 25.0768 53.7871V58H26.3424V53.9746C26.3424 53.207 26.8756 52.6035 27.6842 52.6035C28.5162 52.6035 28.9147 53.0371 28.9147 53.916V58H30.1803V53.6113C30.1803 52.2871 29.4303 51.5137 28.1471 51.5137C27.2623 51.5137 26.5299 51.9648 26.2076 52.6504H26.108C25.8268 51.9648 25.2115 51.5137 24.3444 51.5137C23.5123 51.5137 22.8912 51.918 22.61 52.6152H22.5162V51.6367H21.2448V58ZM33.8621 58.123C35.3739 58.123 36.4989 57.3203 36.4989 56.1426V56.1309C36.4989 55.2109 35.9129 54.6895 34.6883 54.4023L33.6805 54.1738C32.9657 54.0039 32.6727 53.7578 32.6727 53.3594V53.3477C32.6727 52.8379 33.1766 52.4922 33.8739 52.4922C34.5887 52.4922 35.0399 52.8262 35.1629 53.2715V53.2832H36.3758V53.2773C36.2645 52.2402 35.3328 51.5137 33.8797 51.5137C32.4383 51.5137 31.4071 52.3105 31.4071 53.418V53.4238C31.4071 54.3555 31.9637 54.9004 33.1649 55.1758L34.1785 55.4102C34.9168 55.5801 35.2157 55.8496 35.2157 56.248V56.2598C35.2157 56.7812 34.6707 57.1387 33.8856 57.1387C33.1297 57.1387 32.6668 56.8164 32.5086 56.3359L32.5028 56.3301H31.2313V56.3359C31.3543 57.4023 32.327 58.123 33.8621 58.123Z" fill="black"/>
<rect width="38" height="38" rx="5" fill="#016DB1"/>
<path d="M25.75 15.25V22.75C25.75 25 24.625 26.5 22 26.5H16C13.375 26.5 12.25 25 12.25 22.75V15.25C12.25 13 13.375 11.5 16 11.5H22C24.625 11.5 25.75 13 25.75 15.25Z" stroke="white" stroke-width="1.5" stroke-miterlimit="10" stroke-linecap="round" stroke-linejoin="round"/>
<path d="M19.9375 20.5H23.125M16.75 23.5H23.125M21.625 11.5V17.395C21.625 17.725 21.235 17.89 20.995 17.6725L19.255 16.0675C19.186 16.0025 19.0948 15.9663 19 15.9663C18.9052 15.9663 18.814 16.0025 18.745 16.0675L17.005 17.6725C16.765 17.89 16.375 17.725 16.375 17.395V11.5H21.625Z" stroke="white" stroke-width="1.5" stroke-miterlimit="10" stroke-linecap="round" stroke-linejoin="round"/>
</svg>
