<svg width="38" height="65" viewBox="0 0 38 65" fill="none" xmlns="http://www.w3.org/2000/svg">
<path d="M10.6641 58.2051C11.2207 58.2051 11.7363 58.1172 12.1875 57.9414L12.9023 58.9141H14.2559L13.1426 57.3965C14.0801 56.6406 14.6074 55.3809 14.6074 53.7754V53.7637C14.6074 51.0508 13.0957 49.3398 10.6641 49.3398C8.23828 49.3398 6.71484 51.0449 6.71484 53.7637V53.7754C6.71484 56.4883 8.20312 58.2051 10.6641 58.2051ZM10.6641 57.0449C9.03516 57.0449 8.05664 55.7559 8.05664 53.7754V53.7637C8.05664 51.7656 9.06445 50.5 10.6641 50.5C12.2637 50.5 13.2656 51.7656 13.2656 53.7637V53.7754C13.2656 54.8945 12.9492 55.7969 12.3809 56.3652L11.707 55.4512H10.3535L11.4434 56.9277C11.2031 57.0039 10.9395 57.0449 10.6641 57.0449ZM17.9553 58.123C18.8811 58.123 19.5256 57.7246 19.8303 57.0391H19.9299V58H21.1955V51.6367H19.9299V55.3691C19.9299 56.3945 19.385 57.0332 18.3654 57.0332C17.4338 57.0332 17.0471 56.5117 17.0471 55.457V51.6367H15.7756V55.7559C15.7756 57.2617 16.5197 58.123 17.9553 58.123ZM23.2836 50.5C23.7172 50.5 24.0805 50.1426 24.0805 49.709C24.0805 49.2695 23.7172 48.9121 23.2836 48.9121C22.8442 48.9121 22.4867 49.2695 22.4867 49.709C22.4867 50.1426 22.8442 50.5 23.2836 50.5ZM22.6449 58H23.9106V51.6367H22.6449V58ZM25.2076 58H30.2584V56.998H26.7838V56.8984L30.2233 52.5098V51.6367H25.2311V52.6387H28.7233V52.7383L25.2076 57.1738V58Z" fill="black"/>
<rect width="38" height="38" rx="5" fill="#016DB1"/>
<path d="M18.0637 22.645V24.1675C18.0637 25.4575 16.8637 26.5 15.3862 26.5C13.9087 26.5 12.7012 25.4575 12.7012 24.1675V22.645C12.7012 23.935 13.9012 24.85 15.3862 24.85C16.8637 24.85 18.0637 23.9275 18.0637 22.645Z" stroke="white" stroke-width="1.5" stroke-linecap="round" stroke-linejoin="round"/>
<path d="M18.0624 20.5826C18.0624 20.9576 17.9574 21.3026 17.7774 21.6026C17.3349 22.3301 16.4274 22.7876 15.3774 22.7876C14.3274 22.7876 13.4199 22.3226 12.9774 21.6026C12.7974 21.3026 12.6924 20.9576 12.6924 20.5826C12.6924 19.9376 12.9924 19.3601 13.4724 18.9401C13.9599 18.5126 14.6274 18.2576 15.3699 18.2576C16.1124 18.2576 16.7799 18.5201 17.2674 18.9401C17.7624 19.3526 18.0624 19.9376 18.0624 20.5826Z" stroke="white" stroke-width="1.5" stroke-linecap="round" stroke-linejoin="round"/>
<path d="M18.0637 20.5824V22.6449C18.0637 23.9349 16.8637 24.8499 15.3862 24.8499C13.9087 24.8499 12.7012 23.9274 12.7012 22.6449V20.5824C12.7012 19.2924 13.9012 18.2499 15.3862 18.2499C16.1287 18.2499 16.7962 18.5124 17.2837 18.9324C17.7637 19.3524 18.0637 19.9374 18.0637 20.5824ZM26.4997 18.2274V19.7724C26.4997 20.1849 26.1697 20.5224 25.7497 20.5374H24.2797C23.4697 20.5374 22.7272 19.9449 22.6597 19.1349C22.6147 18.6624 22.7947 18.2199 23.1097 17.9124C23.3872 17.6274 23.7697 17.4624 24.1897 17.4624H25.7497C26.1697 17.4774 26.4997 17.8149 26.4997 18.2274Z" stroke="white" stroke-width="1.5" stroke-linecap="round" stroke-linejoin="round"/>
<path d="M11.5 17.875V16.375C11.5 14.335 12.73 12.91 14.6425 12.67C14.8375 12.64 15.04 12.625 15.25 12.625H22C22.195 12.625 22.3825 12.6325 22.5625 12.6625C24.4975 12.8875 25.75 14.32 25.75 16.375V17.4625H24.19C23.77 17.4625 23.3875 17.6275 23.11 17.9125C22.795 18.22 22.615 18.6625 22.66 19.135C22.7275 19.945 23.47 20.5375 24.28 20.5375H25.75V21.625C25.75 23.875 24.25 25.375 22 25.375H20.125" stroke="white" stroke-width="1.5" stroke-linecap="round" stroke-linejoin="round"/>
</svg>
