<svg width="71" height="65" viewBox="0 0 71 65" fill="none" xmlns="http://www.w3.org/2000/svg">
<path d="M1.06055 58H2.37305V55.1113H4.35352C6.01172 55.1113 7.16016 53.9805 7.16016 52.3281V52.3164C7.16016 50.6582 6.01172 49.5449 4.35352 49.5449H1.06055V58ZM4.02539 50.6523C5.16211 50.6523 5.82422 51.2676 5.82422 52.3223V52.334C5.82422 53.3945 5.16211 54.0098 4.02539 54.0098H2.37305V50.6523H4.02539ZM10.7951 58.123C12.424 58.123 13.3029 57.1855 13.5139 56.3477L13.5256 56.2949L12.301 56.3008L12.2775 56.3477C12.1252 56.6758 11.6389 57.0801 10.8244 57.0801C9.77559 57.0801 9.10763 56.3711 9.08419 55.1523H13.5959V54.707C13.5959 52.7969 12.5061 51.5137 10.7307 51.5137C8.95528 51.5137 7.80684 52.8438 7.80684 54.8301V54.8359C7.80684 56.8516 8.93184 58.123 10.7951 58.123ZM10.7365 52.5566C11.5979 52.5566 12.2365 53.1074 12.3361 54.2441H9.10177C9.21309 53.1484 9.86934 52.5566 10.7365 52.5566ZM14.6996 58H15.9711V54.1973C15.9711 53.2773 16.6332 52.6797 17.6059 52.6797C17.8461 52.6797 18.0629 52.709 18.2914 52.7559V51.584C18.1625 51.5547 17.9399 51.5254 17.7348 51.5254C16.8852 51.5254 16.2934 51.9238 16.0649 52.5977H15.9711V51.6367H14.6996V58ZM19.8756 58H21.1412V52.6387H22.5416V51.6367H21.1295V51.0273C21.1295 50.3828 21.4049 50.043 22.108 50.043C22.3073 50.043 22.4772 50.0547 22.5944 50.0723V49.1406C22.3776 49.1055 22.1315 49.082 21.8444 49.082C20.5201 49.082 19.8756 49.7031 19.8756 50.9688V51.6367H18.8268V52.6387H19.8756V58ZM26.0125 58.123C27.8758 58.123 29.0184 56.875 29.0184 54.8242V54.8125C29.0184 52.7617 27.87 51.5137 26.0125 51.5137C24.1493 51.5137 23.0008 52.7676 23.0008 54.8125V54.8242C23.0008 56.875 24.1434 58.123 26.0125 58.123ZM26.0125 57.0625C24.9168 57.0625 24.3016 56.2363 24.3016 54.8242V54.8125C24.3016 53.4004 24.9168 52.5742 26.0125 52.5742C27.1024 52.5742 27.7235 53.4004 27.7235 54.8125V54.8242C27.7235 56.2305 27.1024 57.0625 26.0125 57.0625ZM30.128 58H31.3995V54.1973C31.3995 53.2773 32.0616 52.6797 33.0342 52.6797C33.2745 52.6797 33.4912 52.709 33.7198 52.7559V51.584C33.5909 51.5547 33.3682 51.5254 33.1631 51.5254C32.3135 51.5254 31.7217 51.9238 31.4932 52.5977H31.3995V51.6367H30.128V58ZM34.6184 58H35.8899V54.0918C35.8899 53.2598 36.4583 52.6035 37.2258 52.6035C37.9758 52.6035 38.4504 53.0605 38.4504 53.7871V58H39.7161V53.9746C39.7161 53.207 40.2493 52.6035 41.0579 52.6035C41.8899 52.6035 42.2883 53.0371 42.2883 53.916V58H43.554V53.6113C43.554 52.2871 42.804 51.5137 41.5208 51.5137C40.636 51.5137 39.9036 51.9648 39.5813 52.6504H39.4817C39.2004 51.9648 38.5852 51.5137 37.718 51.5137C36.886 51.5137 36.2649 51.918 35.9836 52.6152H35.8899V51.6367H34.6184V58ZM46.6674 58.1055C47.5112 58.1055 48.1792 57.7422 48.5542 57.0977H48.6538V58H49.9135V53.6465C49.9135 52.3105 49.0112 51.5137 47.4116 51.5137C45.9643 51.5137 44.9624 52.2109 44.81 53.2539L44.8042 53.2949H46.0288L46.0346 53.2715C46.187 52.8203 46.6499 52.5625 47.353 52.5625C48.2143 52.5625 48.6538 52.9492 48.6538 53.6465V54.209L46.9311 54.3086C45.4135 54.4023 44.5581 55.0645 44.5581 56.2012V56.2129C44.5581 57.3672 45.4545 58.1055 46.6674 58.1055ZM45.8237 56.1602V56.1484C45.8237 55.5742 46.2221 55.2578 47.101 55.2051L48.6538 55.1055V55.6504C48.6538 56.4707 47.9565 57.0918 47.0073 57.0918C46.3217 57.0918 45.8237 56.7461 45.8237 56.1602ZM51.2985 58H52.57V54.2676C52.57 53.2422 53.1501 52.6035 54.0817 52.6035C55.0133 52.6035 55.4528 53.125 55.4528 54.1797V58H56.7184V53.8809C56.7184 52.3633 55.9333 51.5137 54.5094 51.5137C53.5837 51.5137 52.9743 51.9238 52.6637 52.6035H52.57V51.6367H51.2985V58ZM60.7635 58.123C62.3397 58.123 63.2479 57.2734 63.4764 56.0371L63.4882 55.9844H62.2694L62.2577 56.0137C62.0526 56.6992 61.5604 57.0625 60.7635 57.0625C59.7147 57.0625 59.0643 56.207 59.0643 54.8008V54.7891C59.0643 53.418 59.703 52.5742 60.7635 52.5742C61.6073 52.5742 62.1229 53.043 62.2635 53.6699L62.2694 53.6875L63.4882 53.6816V53.6523C63.3124 52.416 62.3573 51.5137 60.7577 51.5137C58.9003 51.5137 57.7694 52.7734 57.7694 54.7891V54.8008C57.7694 56.8574 58.9061 58.123 60.7635 58.123ZM67.1934 58.123C68.8223 58.123 69.7012 57.1855 69.9122 56.3477L69.9239 56.2949L68.6993 56.3008L68.6759 56.3477C68.5235 56.6758 68.0372 57.0801 67.2227 57.0801C66.1739 57.0801 65.5059 56.3711 65.4825 55.1523H69.9942V54.707C69.9942 52.7969 68.9044 51.5137 67.129 51.5137C65.3536 51.5137 64.2052 52.8438 64.2052 54.8301V54.8359C64.2052 56.8516 65.3302 58.123 67.1934 58.123ZM67.1348 52.5566C67.9962 52.5566 68.6348 53.1074 68.7345 54.2441H65.5001C65.6114 53.1484 66.2677 52.5566 67.1348 52.5566Z" fill="black"/>
<rect x="16" width="38" height="38" rx="5" fill="#016DB1"/>
<path d="M41.75 15.25V22.75C41.75 25 40.625 26.5 38 26.5H32C29.375 26.5 28.25 25 28.25 22.75V15.25C28.25 13 29.375 11.5 32 11.5H38C40.625 11.5 41.75 13 41.75 15.25Z" stroke="white" stroke-width="1.5" stroke-miterlimit="10" stroke-linecap="round" stroke-linejoin="round"/>
<path d="M35.9375 20.5H39.125M32.75 23.5H39.125M37.625 11.5V17.395C37.625 17.725 37.235 17.89 36.995 17.6725L35.255 16.0675C35.186 16.0025 35.0948 15.9663 35 15.9663C34.9052 15.9663 34.814 16.0025 34.745 16.0675L33.005 17.6725C32.765 17.89 32.375 17.725 32.375 17.395V11.5H37.625Z" stroke="white" stroke-width="1.5" stroke-miterlimit="10" stroke-linecap="round" stroke-linejoin="round"/>
</svg>
