<svg width="157" height="135" viewBox="0 0 157 135" fill="none" xmlns="http://www.w3.org/2000/svg">
<g clip-path="url(#clip0_302_7197)">
<path d="M47.3289 45.9226V63.7441C47.3289 64.2816 47.5976 64.8191 48.1351 65.0879L73.448 79.6843C74.523 80.2218 75.7324 79.55 75.7324 78.3406V60.2504C75.7324 59.7129 75.4636 59.1754 74.9261 58.9066L49.5964 44.5789C48.5214 44.0414 47.3289 44.7132 47.3289 45.9226ZM82.5519 79.55L107.865 64.9535C108.402 64.6847 108.671 64.1472 108.671 63.6097V45.6539C108.671 44.4445 107.462 43.7726 106.387 44.3101L81.0738 58.9066C80.5363 59.1754 80.2675 59.7129 80.2675 60.2504V78.2062C80.2843 79.4156 81.6113 80.2218 82.5519 79.55Z" fill="white"/>
<path d="M76.5219 6.53398L35.8063 30.2512C34.7313 30.7887 34.7313 32.2668 35.8063 32.9387L76.5219 55.5809C77.4625 56.1184 78.6719 56.1184 79.5957 55.5809L115.642 34.9375C116.717 34.4 116.986 35.0719 116.986 36.2812V65.7598C116.986 67.1035 117.792 67.641 119.136 67.641C119.942 67.641 121.017 66.9691 121.017 65.7598V32.6699C121.017 32.1324 120.748 31.5949 120.211 31.3262L79.4781 6.53398C78.5375 5.99648 77.4625 5.99648 76.5219 6.53398Z" fill="white"/>
</g>
<path d="M6.68604 122.256C7.88232 122.256 8.91178 122.081 9.77441 121.731C10.637 121.382 11.2962 120.885 11.752 120.242C12.2158 119.591 12.4478 118.83 12.4478 117.959V117.947C12.4478 116.857 12.0978 115.998 11.3979 115.372C10.6981 114.745 9.5791 114.281 8.04102 113.98L6.46631 113.65C5.57113 113.471 4.91602 113.227 4.50098 112.918C4.08594 112.609 3.87842 112.206 3.87842 111.709V111.697C3.87842 111.315 3.99235 110.981 4.22021 110.696C4.44808 110.403 4.76953 110.18 5.18457 110.025C5.60775 109.862 6.1001 109.781 6.66162 109.781C7.48356 109.781 8.15495 109.956 8.67578 110.306C9.20475 110.647 9.51807 111.124 9.61572 111.734L9.64014 111.856H12.167L12.1548 111.697C12.106 110.908 11.8496 110.212 11.3857 109.61C10.93 109 10.2993 108.528 9.49365 108.194C8.69613 107.86 7.76025 107.693 6.68604 107.693C5.62809 107.693 4.68408 107.868 3.854 108.218C3.03206 108.56 2.38509 109.044 1.91309 109.671C1.44922 110.289 1.21322 111.01 1.20508 111.832V111.844C1.20508 112.885 1.56315 113.736 2.2793 114.395C2.99544 115.046 4.08187 115.514 5.53857 115.799L7.12549 116.128C8.0695 116.316 8.74902 116.564 9.16406 116.873C9.5791 117.182 9.78662 117.601 9.78662 118.13V118.143C9.78662 118.549 9.66048 118.903 9.4082 119.205C9.16406 119.506 8.81413 119.742 8.3584 119.913C7.91081 120.075 7.38184 120.157 6.77148 120.157C6.16113 120.157 5.61589 120.079 5.13574 119.925C4.66374 119.762 4.28125 119.534 3.98828 119.241C3.69531 118.948 3.51628 118.598 3.45117 118.191L3.42676 118.082H0.887695L0.899902 118.228C0.956868 119.058 1.22949 119.778 1.71777 120.389C2.20605 120.991 2.87337 121.455 3.71973 121.78C4.56608 122.098 5.55485 122.256 6.68604 122.256ZM20.9805 122.256C22.1198 122.256 23.137 122.053 24.0322 121.646C24.9355 121.231 25.668 120.665 26.2295 119.949C26.791 119.225 27.1369 118.383 27.2671 117.422V117.337H24.6548L24.6426 117.422C24.488 117.984 24.2397 118.468 23.8979 118.875C23.5643 119.274 23.1493 119.579 22.6528 119.791C22.1646 119.994 21.6071 120.096 20.9805 120.096C20.1341 120.096 19.3976 119.888 18.771 119.473C18.1444 119.05 17.6561 118.456 17.3062 117.691C16.9644 116.926 16.7935 116.019 16.7935 114.969V114.957C16.7935 113.907 16.9644 112.999 17.3062 112.234C17.6479 111.469 18.1322 110.879 18.7588 110.464C19.3936 110.049 20.1341 109.842 20.9805 109.842C21.6152 109.842 22.1808 109.952 22.6772 110.171C23.1737 110.383 23.5846 110.688 23.9102 111.087C24.2438 111.478 24.4757 111.941 24.606 112.479L24.6548 112.649H27.2671L27.2549 112.552C27.1328 111.6 26.7869 110.757 26.2173 110.025C25.6558 109.292 24.9233 108.723 24.02 108.316C23.1248 107.901 22.1117 107.693 20.9805 107.693C19.5726 107.693 18.3519 107.986 17.3184 108.572C16.2848 109.158 15.4873 109.996 14.9258 111.087C14.3643 112.169 14.0835 113.459 14.0835 114.957V114.969C14.0835 116.466 14.3643 117.76 14.9258 118.851C15.4873 119.941 16.2848 120.783 17.3184 121.377C18.3519 121.963 19.5726 122.256 20.9805 122.256ZM29.4644 122H32.1255V115.896H39.2544V122H41.9155V107.938H39.2544V113.797H32.1255V107.938H29.4644V122ZM51.2051 122.256C52.6455 122.256 53.8866 121.963 54.9282 121.377C55.978 120.783 56.7837 119.941 57.3452 118.851C57.9149 117.752 58.1997 116.458 58.1997 114.969V114.957C58.1997 113.467 57.9149 112.181 57.3452 111.099C56.7756 110.009 55.9658 109.17 54.916 108.584C53.8743 107.99 52.6374 107.693 51.2051 107.693C49.7728 107.693 48.5317 107.99 47.4819 108.584C46.4403 109.17 45.6346 110.009 45.0649 111.099C44.4953 112.181 44.2104 113.467 44.2104 114.957V114.969C44.2104 116.458 44.4953 117.752 45.0649 118.851C45.6346 119.941 46.4403 120.783 47.4819 121.377C48.5317 121.963 49.7728 122.256 51.2051 122.256ZM51.2173 120.096C50.3465 120.096 49.5856 119.888 48.9346 119.473C48.2917 119.058 47.7952 118.468 47.4453 117.703C47.0954 116.93 46.9204 116.019 46.9204 114.969V114.944C46.9204 113.895 47.0954 112.987 47.4453 112.222C47.7952 111.457 48.2917 110.867 48.9346 110.452C49.5856 110.037 50.3465 109.83 51.2173 109.83C52.0881 109.83 52.8449 110.041 53.4878 110.464C54.1307 110.879 54.6271 111.469 54.9771 112.234C55.327 112.991 55.502 113.895 55.502 114.944V114.969C55.502 116.01 55.327 116.914 54.9771 117.679C54.6353 118.444 54.1429 119.038 53.5 119.461C52.8571 119.884 52.0962 120.096 51.2173 120.096ZM66.9521 122.256C68.3926 122.256 69.6336 121.963 70.6753 121.377C71.7251 120.783 72.5308 119.941 73.0923 118.851C73.6619 117.752 73.9468 116.458 73.9468 114.969V114.957C73.9468 113.467 73.6619 112.181 73.0923 111.099C72.5226 110.009 71.7129 109.17 70.6631 108.584C69.6214 107.99 68.3844 107.693 66.9521 107.693C65.5199 107.693 64.2788 107.99 63.229 108.584C62.1873 109.17 61.3817 110.009 60.812 111.099C60.2424 112.181 59.9575 113.467 59.9575 114.957V114.969C59.9575 116.458 60.2424 117.752 60.812 118.851C61.3817 119.941 62.1873 120.783 63.229 121.377C64.2788 121.963 65.5199 122.256 66.9521 122.256ZM66.9644 120.096C66.0936 120.096 65.3327 119.888 64.6816 119.473C64.0387 119.058 63.5423 118.468 63.1924 117.703C62.8424 116.93 62.6675 116.019 62.6675 114.969V114.944C62.6675 113.895 62.8424 112.987 63.1924 112.222C63.5423 111.457 64.0387 110.867 64.6816 110.452C65.3327 110.037 66.0936 109.83 66.9644 109.83C67.8351 109.83 68.592 110.041 69.2349 110.464C69.8778 110.879 70.3742 111.469 70.7241 112.234C71.0741 112.991 71.249 113.895 71.249 114.944V114.969C71.249 116.01 71.0741 116.914 70.7241 117.679C70.3823 118.444 69.89 119.038 69.2471 119.461C68.6042 119.884 67.8433 120.096 66.9644 120.096ZM76.2417 122H85.5801V119.9H78.9028V107.938H76.2417V122ZM98.1167 122.256C99.313 122.256 100.342 122.081 101.205 121.731C102.068 121.382 102.727 120.885 103.183 120.242C103.646 119.591 103.878 118.83 103.878 117.959V117.947C103.878 116.857 103.528 115.998 102.829 115.372C102.129 114.745 101.01 114.281 99.4717 113.98L97.897 113.65C97.0018 113.471 96.3467 113.227 95.9316 112.918C95.5166 112.609 95.3091 112.206 95.3091 111.709V111.697C95.3091 111.315 95.423 110.981 95.6509 110.696C95.8787 110.403 96.2002 110.18 96.6152 110.025C97.0384 109.862 97.5308 109.781 98.0923 109.781C98.9142 109.781 99.5856 109.956 100.106 110.306C100.635 110.647 100.949 111.124 101.046 111.734L101.071 111.856H103.598L103.585 111.697C103.537 110.908 103.28 110.212 102.816 109.61C102.361 109 101.73 108.528 100.924 108.194C100.127 107.86 99.1909 107.693 98.1167 107.693C97.0588 107.693 96.1147 107.868 95.2847 108.218C94.4627 108.56 93.8158 109.044 93.3438 109.671C92.8799 110.289 92.6439 111.01 92.6357 111.832V111.844C92.6357 112.885 92.9938 113.736 93.71 114.395C94.4261 115.046 95.5125 115.514 96.9692 115.799L98.5562 116.128C99.5002 116.316 100.18 116.564 100.595 116.873C101.01 117.182 101.217 117.601 101.217 118.13V118.143C101.217 118.549 101.091 118.903 100.839 119.205C100.595 119.506 100.245 119.742 99.7891 119.913C99.3415 120.075 98.8125 120.157 98.2021 120.157C97.5918 120.157 97.0465 120.079 96.5664 119.925C96.0944 119.762 95.7119 119.534 95.4189 119.241C95.126 118.948 94.9469 118.598 94.8818 118.191L94.8574 118.082H92.3184L92.3306 118.228C92.3875 119.058 92.6602 119.778 93.1484 120.389C93.6367 120.991 94.304 121.455 95.1504 121.78C95.9967 122.098 96.9855 122.256 98.1167 122.256ZM107.382 117.349H111.776C112.769 117.349 113.644 117.154 114.401 116.763C115.158 116.364 115.744 115.811 116.159 115.103C116.582 114.395 116.793 113.577 116.793 112.649V112.637C116.793 111.693 116.582 110.871 116.159 110.171C115.744 109.463 115.158 108.914 114.401 108.523C113.644 108.133 112.769 107.938 111.776 107.938H107.382V109.976H111.117C112.061 109.976 112.794 110.208 113.314 110.672C113.843 111.136 114.108 111.795 114.108 112.649V112.662C114.108 113.508 113.843 114.167 113.314 114.639C112.794 115.103 112.061 115.335 111.117 115.335H107.382V117.349ZM106.051 122H108.712V107.938H106.051V122ZM116.684 122H119.479L123.397 110.452H124.179V107.938H121.933L116.684 122ZM119.369 118.35H127.523L126.828 116.421H120.065L119.369 118.35ZM127.401 122H130.197L124.936 107.938H123.471V110.452L127.401 122ZM137.777 122.256C138.917 122.256 139.934 122.053 140.829 121.646C141.732 121.231 142.465 120.665 143.026 119.949C143.588 119.225 143.934 118.383 144.064 117.422V117.337H141.452L141.439 117.422C141.285 117.984 141.037 118.468 140.695 118.875C140.361 119.274 139.946 119.579 139.45 119.791C138.961 119.994 138.404 120.096 137.777 120.096C136.931 120.096 136.194 119.888 135.568 119.473C134.941 119.05 134.453 118.456 134.103 117.691C133.761 116.926 133.59 116.019 133.59 114.969V114.957C133.59 113.907 133.761 112.999 134.103 112.234C134.445 111.469 134.929 110.879 135.556 110.464C136.19 110.049 136.931 109.842 137.777 109.842C138.412 109.842 138.978 109.952 139.474 110.171C139.971 110.383 140.382 110.688 140.707 111.087C141.041 111.478 141.273 111.941 141.403 112.479L141.452 112.649H144.064L144.052 112.552C143.93 111.6 143.584 110.757 143.014 110.025C142.453 109.292 141.72 108.723 140.817 108.316C139.922 107.901 138.909 107.693 137.777 107.693C136.369 107.693 135.149 107.986 134.115 108.572C133.082 109.158 132.284 109.996 131.723 111.087C131.161 112.169 130.88 113.459 130.88 114.957V114.969C130.88 116.466 131.161 117.76 131.723 118.851C132.284 119.941 133.082 120.783 134.115 121.377C135.149 121.963 136.369 122.256 137.777 122.256ZM146.261 122H155.807V119.9H148.922V115.872H155.429V113.858H148.922V110.037H155.807V107.938H146.261V122Z" fill="white"/>
<defs>
<clipPath id="clip0_302_7197">
<rect width="86" height="86" fill="white" transform="translate(35)"/>
</clipPath>
</defs>
</svg>
