<svg width="63" height="65" viewBox="0 0 63 65" fill="none" xmlns="http://www.w3.org/2000/svg">
<path d="M0.410156 58H1.78711L2.55469 55.7148H5.78906L6.55078 58H7.93359L4.88086 49.5449H3.46289L0.410156 58ZM4.11914 51.0273H4.21875L5.4375 54.6602H2.90625L4.11914 51.0273ZM10.9006 58.041C11.1467 58.041 11.3811 58.0117 11.5861 57.9766V56.9629C11.4104 56.9805 11.299 56.9863 11.1057 56.9863C10.4787 56.9863 10.2209 56.7051 10.2209 56.0195V52.6387H11.5861V51.6367H10.2209V50.0312H8.92598V51.6367H7.92989V52.6387H8.92598V56.3242C8.92598 57.5488 9.5002 58.041 10.9006 58.041ZM15.0863 58.041C15.3324 58.041 15.5668 58.0117 15.7719 57.9766V56.9629C15.5961 56.9805 15.4848 56.9863 15.2914 56.9863C14.6645 56.9863 14.4067 56.7051 14.4067 56.0195V52.6387H15.7719V51.6367H14.4067V50.0312H13.1117V51.6367H12.1156V52.6387H13.1117V56.3242C13.1117 57.5488 13.686 58.041 15.0863 58.041ZM19.4479 58.123C21.0768 58.123 21.9557 57.1855 22.1666 56.3477L22.1783 56.2949L20.9537 56.3008L20.9303 56.3477C20.778 56.6758 20.2916 57.0801 19.4772 57.0801C18.4283 57.0801 17.7604 56.3711 17.7369 55.1523H22.2487V54.707C22.2487 52.7969 21.1588 51.5137 19.3834 51.5137C17.608 51.5137 16.4596 52.8438 16.4596 54.8301V54.8359C16.4596 56.8516 17.5846 58.123 19.4479 58.123ZM19.3893 52.5566C20.2506 52.5566 20.8893 53.1074 20.9889 54.2441H17.7545C17.8658 53.1484 18.5221 52.5566 19.3893 52.5566ZM23.3524 58H24.6239V54.2676C24.6239 53.2422 25.2039 52.6035 26.1356 52.6035C27.0672 52.6035 27.5067 53.125 27.5067 54.1797V58H28.7723V53.8809C28.7723 52.3633 27.9871 51.5137 26.5633 51.5137C25.6375 51.5137 25.0282 51.9238 24.7176 52.6035H24.6239V51.6367H23.3524V58ZM32.46 58.1055C33.3506 58.1055 34.0479 57.6953 34.417 56.998H34.5166V58H35.7823V49.1406H34.5166V52.6445H34.417C34.0772 51.959 33.333 51.5254 32.46 51.5254C30.8428 51.5254 29.8233 52.7969 29.8233 54.8125V54.8242C29.8233 56.8223 30.8604 58.1055 32.46 58.1055ZM32.8233 57.0215C31.7569 57.0215 31.1182 56.1895 31.1182 54.8242V54.8125C31.1182 53.4473 31.7569 52.6152 32.8233 52.6152C33.878 52.6152 34.5342 53.4531 34.5342 54.8125V54.8242C34.5342 56.1836 33.8838 57.0215 32.8233 57.0215ZM39.0129 58.1055C39.8567 58.1055 40.5247 57.7422 40.8997 57.0977H40.9993V58H42.259V53.6465C42.259 52.3105 41.3567 51.5137 39.7571 51.5137C38.3098 51.5137 37.3079 52.2109 37.1555 53.2539L37.1497 53.2949H38.3743L38.3801 53.2715C38.5325 52.8203 38.9954 52.5625 39.6985 52.5625C40.5598 52.5625 40.9993 52.9492 40.9993 53.6465V54.209L39.2766 54.3086C37.759 54.4023 36.9036 55.0645 36.9036 56.2012V56.2129C36.9036 57.3672 37.8 58.1055 39.0129 58.1055ZM38.1692 56.1602V56.1484C38.1692 55.5742 38.5676 55.2578 39.4465 55.2051L40.9993 55.1055V55.6504C40.9993 56.4707 40.302 57.0918 39.3528 57.0918C38.6672 57.0918 38.1692 56.7461 38.1692 56.1602ZM43.644 58H44.9155V54.2676C44.9155 53.2422 45.4956 52.6035 46.4272 52.6035C47.3588 52.6035 47.7983 53.125 47.7983 54.1797V58H49.0639V53.8809C49.0639 52.3633 48.2788 51.5137 46.8549 51.5137C45.9292 51.5137 45.3198 51.9238 45.0092 52.6035H44.9155V51.6367H43.644V58ZM53.109 58.123C54.6852 58.123 55.5934 57.2734 55.8219 56.0371L55.8337 55.9844H54.6149L54.6032 56.0137C54.3981 56.6992 53.9059 57.0625 53.109 57.0625C52.0602 57.0625 51.4098 56.207 51.4098 54.8008V54.7891C51.4098 53.418 52.0485 52.5742 53.109 52.5742C53.9528 52.5742 54.4684 53.043 54.609 53.6699L54.6149 53.6875L55.8337 53.6816V53.6523C55.6579 52.416 54.7028 51.5137 53.1032 51.5137C51.2458 51.5137 50.1149 52.7734 50.1149 54.7891V54.8008C50.1149 56.8574 51.2516 58.123 53.109 58.123ZM59.5389 58.123C61.1678 58.123 62.0467 57.1855 62.2577 56.3477L62.2694 56.2949L61.0448 56.3008L61.0214 56.3477C60.869 56.6758 60.3827 57.0801 59.5682 57.0801C58.5194 57.0801 57.8514 56.3711 57.828 55.1523H62.3397V54.707C62.3397 52.7969 61.2499 51.5137 59.4745 51.5137C57.6991 51.5137 56.5507 52.8438 56.5507 54.8301V54.8359C56.5507 56.8516 57.6757 58.123 59.5389 58.123ZM59.4803 52.5566C60.3417 52.5566 60.9803 53.1074 61.08 54.2441H57.8456C57.9569 53.1484 58.6132 52.5566 59.4803 52.5566Z" fill="black"/>
<rect x="12" width="38" height="38" rx="5" fill="#016DB1"/>
<g clip-path="url(#clip0_337_7380)">
<path d="M31.2775 16.6599H35.215M26.785 16.6599L27.3475 17.2224L29.035 15.5349M31.2775 21.9099H35.215M26.785 21.9099L27.3475 22.4724L29.035 20.7849" stroke="white" stroke-width="1.5" stroke-linecap="round" stroke-linejoin="round"/>
<path d="M28.75 26.5H33.25C37 26.5 38.5 25 38.5 21.25V16.75C38.5 13 37 11.5 33.25 11.5H28.75C25 11.5 23.5 13 23.5 16.75V21.25C23.5 25 25 26.5 28.75 26.5Z" stroke="white" stroke-width="1.5" stroke-linecap="round" stroke-linejoin="round"/>
</g>
<defs>
<clipPath id="clip0_337_7380">
<rect width="18" height="18" fill="white" transform="translate(22 10)"/>
</clipPath>
</defs>
</svg>
