<svg width="65" height="65" viewBox="0 0 65 65" fill="none" xmlns="http://www.w3.org/2000/svg">
<path d="M0.410156 58H1.78711L2.55469 55.7148H5.78906L6.55078 58H7.93359L4.88086 49.5449H3.46289L0.410156 58ZM4.11914 51.0273H4.21875L5.4375 54.6602H2.90625L4.11914 51.0273ZM11.0236 58.123C12.5354 58.123 13.6604 57.3203 13.6604 56.1426V56.1309C13.6604 55.2109 13.0744 54.6895 11.8498 54.4023L10.842 54.1738C10.1272 54.0039 9.83419 53.7578 9.83419 53.3594V53.3477C9.83419 52.8379 10.3381 52.4922 11.0354 52.4922C11.7502 52.4922 12.2014 52.8262 12.3244 53.2715V53.2832H13.5373V53.2773C13.426 52.2402 12.4943 51.5137 11.0412 51.5137C9.59981 51.5137 8.56856 52.3105 8.56856 53.418V53.4238C8.56856 54.3555 9.1252 54.9004 10.3264 55.1758L11.34 55.4102C12.0783 55.5801 12.3772 55.8496 12.3772 56.248V56.2598C12.3772 56.7812 11.8322 57.1387 11.0471 57.1387C10.2912 57.1387 9.82833 56.8164 9.67013 56.3359L9.66427 56.3301H8.39278V56.3359C8.51583 57.4023 9.48848 58.123 11.0236 58.123ZM14.8285 58H16.1V55.6855L16.6449 55.1406L18.8363 58H20.3832L17.5531 54.3203L20.2074 51.6367H18.7192L16.1938 54.3203H16.1V49.1406H14.8285V58ZM26.411 58.041C26.6571 58.041 26.8914 58.0117 27.0965 57.9766V56.9629C26.9207 56.9805 26.8094 56.9863 26.616 56.9863C25.9891 56.9863 25.7313 56.7051 25.7313 56.0195V52.6387H27.0965V51.6367H25.7313V50.0312H24.4364V51.6367H23.4403V52.6387H24.4364V56.3242C24.4364 57.5488 25.0106 58.041 26.411 58.041ZM30.7725 58.123C32.4014 58.123 33.2803 57.1855 33.4912 56.3477L33.503 56.2949L32.2784 56.3008L32.2549 56.3477C32.1026 56.6758 31.6162 57.0801 30.8018 57.0801C29.753 57.0801 29.085 56.3711 29.0616 55.1523H33.5733V54.707C33.5733 52.7969 32.4834 51.5137 30.708 51.5137C28.9327 51.5137 27.7842 52.8438 27.7842 54.8301V54.8359C27.7842 56.8516 28.9092 58.123 30.7725 58.123ZM30.7139 52.5566C31.5752 52.5566 32.2139 53.1074 32.3135 54.2441H29.0791C29.1905 53.1484 29.8467 52.5566 30.7139 52.5566ZM36.4231 58.1055C37.2668 58.1055 37.9348 57.7422 38.3098 57.0977H38.4094V58H39.6692V53.6465C39.6692 52.3105 38.7668 51.5137 37.1672 51.5137C35.72 51.5137 34.718 52.2109 34.5657 53.2539L34.5598 53.2949H35.7844L35.7903 53.2715C35.9426 52.8203 36.4055 52.5625 37.1086 52.5625C37.97 52.5625 38.4094 52.9492 38.4094 53.6465V54.209L36.6868 54.3086C35.1692 54.4023 34.3137 55.0645 34.3137 56.2012V56.2129C34.3137 57.3672 35.2102 58.1055 36.4231 58.1055ZM35.5793 56.1602V56.1484C35.5793 55.5742 35.9778 55.2578 36.8567 55.2051L38.4094 55.1055V55.6504C38.4094 56.4707 37.7122 57.0918 36.7629 57.0918C36.0774 57.0918 35.5793 56.7461 35.5793 56.1602ZM43.7319 58.123C45.3081 58.123 46.2163 57.2734 46.4448 56.0371L46.4565 55.9844H45.2378L45.226 56.0137C45.021 56.6992 44.5288 57.0625 43.7319 57.0625C42.6831 57.0625 42.0327 56.207 42.0327 54.8008V54.7891C42.0327 53.418 42.6713 52.5742 43.7319 52.5742C44.5756 52.5742 45.0913 53.043 45.2319 53.6699L45.2378 53.6875L46.4565 53.6816V53.6523C46.2807 52.416 45.3256 51.5137 43.726 51.5137C41.8686 51.5137 40.7378 52.7734 40.7378 54.7891V54.8008C40.7378 56.8574 41.8745 58.123 43.7319 58.123ZM47.5485 58H48.82V54.2676C48.82 53.2422 49.4001 52.6035 50.3317 52.6035C51.2633 52.6035 51.7028 53.125 51.7028 54.1797V58H52.9684V53.8809C52.9684 52.3633 52.1833 51.5137 50.7594 51.5137C49.8337 51.5137 49.2243 51.9238 48.9137 52.6035H48.82V49.1406H47.5485V58ZM57.0077 58.123C58.6366 58.123 59.5155 57.1855 59.7264 56.3477L59.7382 56.2949L58.5135 56.3008L58.4901 56.3477C58.3378 56.6758 57.8514 57.0801 57.037 57.0801C55.9882 57.0801 55.3202 56.3711 55.2967 55.1523H59.8085V54.707C59.8085 52.7969 58.7186 51.5137 56.9432 51.5137C55.1678 51.5137 54.0194 52.8438 54.0194 54.8301V54.8359C54.0194 56.8516 55.1444 58.123 57.0077 58.123ZM56.9491 52.5566C57.8104 52.5566 58.4491 53.1074 58.5487 54.2441H55.3143C55.4257 53.1484 56.0819 52.5566 56.9491 52.5566ZM60.9122 58H62.1837V54.1973C62.1837 53.2773 62.8458 52.6797 63.8184 52.6797C64.0587 52.6797 64.2755 52.709 64.504 52.7559V51.584C64.3751 51.5547 64.1524 51.5254 63.9473 51.5254C63.0977 51.5254 62.5059 51.9238 62.2774 52.5977H62.1837V51.6367H60.9122V58Z" fill="black"/>
<rect x="13" width="38" height="38" rx="5" fill="#016DB1"/>
<path d="M33.5 16H37.25M34.25 19H37.25M35.75 22H37.25M35.75 25.75H28.25C25.25 25.75 24.5 25 24.5 22V16C24.5 13 25.25 12.25 28.25 12.25H35.75C38.75 12.25 39.5 13 39.5 16V22C39.5 25 38.75 25.75 35.75 25.75Z" stroke="white" stroke-width="1.5" stroke-linecap="round" stroke-linejoin="round"/>
<path d="M32 22.2474C31.9495 21.721 31.7164 21.2288 31.3411 20.8562C30.9657 20.4836 30.4718 20.2541 29.945 20.2074C29.5659 20.1699 29.1841 20.1699 28.805 20.2074C28.2787 20.2555 27.7856 20.4854 27.4105 20.8578C27.0355 21.2301 26.8019 21.7215 26.75 22.2474M29.375 18.4674C29.735 18.4674 30.0803 18.3244 30.3349 18.0698C30.5895 17.8153 30.7325 17.47 30.7325 17.1099C30.7325 16.7499 30.5895 16.4046 30.3349 16.15C30.0803 15.8955 29.735 15.7524 29.375 15.7524C29.015 15.7524 28.6697 15.8955 28.4151 16.15C28.1605 16.4046 28.0175 16.7499 28.0175 17.1099C28.0175 17.47 28.1605 17.8153 28.4151 18.0698C28.6697 18.3244 29.015 18.4674 29.375 18.4674Z" stroke="white" stroke-width="1.5" stroke-linecap="round" stroke-linejoin="round"/>
</svg>
